<svg id="Calque_28" data-name="Calque 28" xmlns="http://www.w3.org/2000/svg" viewBox="0 0 304.49 116.78"><defs><style>.cls-1{fill:#92c788;}.cls-1,.cls-2{stroke:#1d1d1b;stroke-miterlimit:10;}.cls-2{fill:#f2a0bf;}</style></defs><path class="cls-1" d="M73.61,80.5S54.78,96.69,56.53,122.38s14,35.91,30.65,35.62,24.82-15.19,25.4-25.4h22.48s-3.5,42.85-49.92,43.32l-13.43-.41s-40-3.49-39.4-50.5S43.11,72.77,73.61,80.5Z" transform="translate(-8.13 -60.51)"/><path class="cls-1" d="M110.83,98.73h24.23s-1.17-43.5-68.9-37.08C66.16,61.65,110.54,61.07,110.83,98.73Z" transform="translate(-8.13 -60.51)"/><path class="cls-2" d="M86.89,99s-.58-20.43-23.65-20.14S32,98.44,32.3,129.09s32.11,45.55,39.41,46.42c0,0-61.89,8.47-63.06-52s41.46-61.9,57.51-61.9,44.09,8.18,44.67,37.08Z" transform="translate(-8.13 -60.51)"/><path class="cls-2" d="M112.58,132.6H87.77s1.09,17.28-13.33,23.09C74.44,155.69,106.74,169.38,112.58,132.6Z" transform="translate(-8.13 -60.51)"/><polygon class="cls-2" points="131.3 1.84 157.29 1.84 176.85 85.92 197.28 1.84 216.26 1.84 189.98 116.28 162.54 116.28 131.3 1.84"/><polygon class="cls-2" points="228.23 28.99 240.2 84.75 260.34 1.84 278.15 1.84 253.19 116.28 228.23 116.28 218.01 78.91 228.23 28.99"/><polygon class="cls-1" points="303.84 1.84 274.65 116.28 253.19 116.28 278.15 1.84 303.84 1.84"/><polygon class="cls-1" points="250.13 43.88 241.37 1.84 216.26 1.84 189.98 116.28 209.84 116.28 218.01 78.91 228.23 28.99 240.2 84.75 250.13 43.88"/><polygon class="cls-1" points="157.29 1.84 182.39 1.84 188.35 38.58 176.85 85.92 157.29 1.84"/></svg>